<svg xmlns="http://www.w3.org/2000/svg" xmlns:xlink="http://www.w3.org/1999/xlink" width="350" height="155" viewBox="0 0 350 155" fill="none"><g  clip-path="url(#clip-path-cPeYZf9wQpEJgwHzvwdVu)"><path d="M52.941 155L0 155L88.8969 0L141.838 0L52.941 155Z"   fill="#1271B3" ></path><path d="M183.083 37.2073L161.742 0L108.805 0L156.615 83.3637L183.083 37.2073Z"   fill="#1271B3" ></path><path d="M229.162 0L282.103 0L193.206 155L140.265 155L229.162 0Z"   fill="#2CA0EB" ></path><path d="M99.0195 117.793L120.361 155L173.298 155L125.488 71.6362L99.0195 117.793Z"   fill="#2CA0EB" ></path><path d="M41.8336 22.3211C43.4896 21.4532 44.3911 19.6103 44.0614 17.7713C43.7437 14.9494 40.2411 13.8516 37.5446 13.5385L37.5446 9.30176L34.8402 9.30176L34.8402 13.5345L33.0928 13.5345L33.0928 9.30176L30.3884 9.30176L30.3884 13.5345L24.9795 13.5345L24.9795 16.3564L27.0446 16.3564C27.9977 16.3564 28.3193 16.6695 28.3193 17.2957L28.3193 29.0587C28.4345 29.6255 28.0652 30.1803 27.4973 30.2953C27.402 30.3151 27.3027 30.319 27.2074 30.3111L25.2972 30.3111L25.1383 33.133L30.3844 33.133L30.3844 37.5322L33.0888 37.5322L33.0888 33.1409L34.8362 33.1409L34.8362 37.5322L37.5406 37.5322L37.5406 33.1409L38.176 33.1409C43.7398 33.1409 45.4871 30.4736 45.4871 26.867C45.4871 23.2604 41.8336 22.3172 41.8336 22.3211ZM33.0888 16.5149L34.999 16.5149C36.2738 16.5149 38.9743 16.6735 38.9743 18.8691C39.0696 20.2959 38.0172 21.5443 36.5875 21.691L33.0888 21.691L33.0888 16.5149ZM36.111 30.1605L33.0888 30.1605L33.0888 24.5168L36.5875 24.5168C37.3818 24.5168 40.4079 24.8299 40.4079 26.871C40.4079 28.9121 38.9743 30.1605 36.111 30.1605Z"   fill="#1271B3" ></path><path d="M34.4351 44.7575C22.3942 44.7575 12.6011 34.984 12.6011 22.9674C12.6011 10.9507 22.3942 1.17725 34.4351 1.17725C46.476 1.17725 56.2691 10.9507 56.2691 22.9674C56.2691 34.984 46.476 44.7575 34.4351 44.7575ZM34.4351 3.79697C23.8437 3.79697 15.2261 12.3973 15.2261 22.9674C15.2261 33.5374 23.8437 42.1377 34.4351 42.1377C45.0265 42.1377 53.6441 33.5374 53.6441 22.9674C53.6441 12.3973 45.0265 3.79697 34.4351 3.79697Z"   fill="#1271B3" ></path><path d="M315.942 23.3082L329.131 0.0556641L309.834 0.0556641L296.646 23.3082L284.291 23.3082L297.48 0.0556641L278.183 0.0556641L264.995 23.3082L226.708 23.3082L217.943 38.7571L232.645 38.7571C239.487 38.7571 240.758 40.4732 238.768 43.9847L202.217 108.44C199.25 113.667 195.013 115.383 190.418 115.383L185.756 115.383C180.331 115.383 175.288 118.157 172.389 122.735L167.258 130.836L204.524 130.836L190.895 154.869L209.683 154.869L223.312 130.836L235.77 130.836L222.141 154.869L241.437 154.869L255.067 130.836L259.661 130.836C299.175 130.836 319.894 116.089 331.045 96.4229C342.196 76.761 318.921 71.5295 318.921 71.5295C318.921 71.5295 342.156 64.5858 348.804 46.5608C355.321 31.1119 333.916 25.1036 315.942 23.3082ZM309.064 52.7277C302.69 63.9636 290.594 67.4751 283.354 68.1766L258.851 68.1766L274.959 39.7717L288.334 39.7717C297.416 39.7717 315.966 40.5525 309.064 52.7277ZM250.043 83.7047L274.855 83.7047C280.471 83.7047 300.939 85.4208 294.565 96.6567C288.191 107.893 273.926 114.682 253.712 114.682L232.474 114.682L250.043 83.7047Z"   fill="#1271B3" ></path></g><defs><clipPath id="clip-path-cPeYZf9wQpEJgwHzvwdVu"><path d="M0 155L350 155L350 0L0 0L0 155Z" fill="white"/></clipPath></defs></svg>