<?xml version="1.0" encoding="UTF-8"?>
<svg version="1.1" xmlns="http://www.w3.org/2000/svg" width="88" height="88">
<path d="M0 0 C8.54784803 6.5940542 15.29007526 15.69729409 17.3125 26.4375 C18.81986172 40.72453135 17.35721866 52.98060941 8.625 64.8125 C1.49855492 73.03326811 -7.90718841 79.49565397 -18.91796875 80.67675781 C-33.67553986 81.7266804 -45.96068874 79.64020651 -57.46875 69.6640625 C-66.94322521 60.15622646 -71.04409588 49.83406834 -71.25 36.5625 C-71.13153756 23.37775226 -67.13174736 12.84860965 -57.6875 3.4375 C-41.11237031 -10.87988778 -18.12707875 -12.02709448 0 0 Z " fill="#D8C0FE" transform="translate(70.6875,7.5625)"/>
<path d="M0 0 C7.19680113 -0.46850785 12.2283054 -0.59379775 18 4 C20.94693979 7.46440839 22.23288687 10.70237977 22.375 15.25 C22 19 22 19 20 22 C20.32126128 24.63434254 20.81355048 26.62710097 22 29 C22.44764405 34.28219979 22.26866138 37.97146693 19.3125 42.45703125 C16.06843452 46.27073918 12.97090867 47.83797112 8.1015625 48.23828125 C5.38779846 48.24874564 2.70753237 48.17625889 0 48 C0.763125 47.278125 1.52625 46.55625 2.3125 45.8125 C7.19989701 40.6977822 7.95648847 38.30458074 9 31 C-3.87 30.505 -3.87 30.505 -17 30 C-17 26.04 -17 22.08 -17 18 C-8.42 17.67 0.16 17.34 9 17 C8.55324067 9.82645099 8.55324067 9.82645099 5.0625 5.125 C4.53785156 4.57070313 4.01320313 4.01640625 3.47265625 3.4453125 C2.74369141 2.72988281 2.74369141 2.72988281 2 2 C1.34 1.34 0.68 0.68 0 0 Z " fill="#8351BD" transform="translate(42,20)"/>
<path d="M0 0 C3.96 0 7.92 0 12 0 C12 1.65 12 3.3 12 5 C15.96 5 19.92 5 24 5 C22.87308642 10.6345679 22.87308642 10.6345679 19.5625 13.25 C18.94503906 13.75015625 18.32757813 14.2503125 17.69140625 14.765625 C12.60576675 18.47708477 6.03851426 17.05489558 0 17 C0 11.39 0 5.78 0 0 Z " fill="#8554BE" transform="translate(25,51)"/>
<path d="M0 0 C12.95022624 -0.48868778 12.95022624 -0.48868778 17.625 1.6875 C20.02158481 4.02101679 22.14228635 6.21342953 24 9 C24 9.99 24 10.98 24 12 C20.04 12 16.08 12 12 12 C12 13.65 12 15.3 12 17 C8.04 17 4.08 17 0 17 C0 11.39 0 5.78 0 0 Z " fill="#8553BE" transform="translate(25,20)"/>
</svg>
